<svg width="176" height="55" viewBox="0 0 176 55" fill="none" xmlns="http://www.w3.org/2000/svg">
<path d="M157.677 10.6264C163.268 8.99627 167.513 8.46093 169.866 9.08937C172.219 9.71782 172.572 11.4813 170.88 14.1526C169.188 16.8239 165.527 20.2807 160.371 24.0777C155.214 27.8747 148.798 31.838 141.947 35.4571C135.097 39.0762 128.127 42.1854 121.934 44.384C115.742 46.5827 110.611 47.7702 107.203 47.7935C103.795 47.8168 102.265 46.675 102.811 44.515C103.357 42.355 105.954 39.2758 110.266 35.6741L114.47 34.5303C110.828 37.5723 108.635 40.1729 108.173 41.9973C107.712 43.8216 109.004 44.786 111.883 44.7663C114.762 44.7466 119.095 43.7436 124.325 41.8866C129.555 40.0297 135.442 37.4037 141.228 34.347C147.014 31.2903 152.433 27.9429 156.788 24.736C161.144 21.529 164.235 18.6094 165.664 16.3533C167.093 14.0971 166.795 12.6077 164.808 12.0769C162.821 11.5461 159.235 11.9983 154.513 13.3751L157.677 10.6264Z" fill="#FFB0B0"/>
<path d="M161.019 23.2323C161.756 29.1349 160.482 36.3063 157.159 41.24C153.836 46.1737 148.839 49.7376 143.092 51.2733C137.346 52.8089 131.237 52.2123 125.896 49.5938C120.555 46.9754 116.342 42.512 114.037 37.0286C111.731 31.5452 111.488 25.4126 113.353 19.7642C115.218 14.1157 119.065 9.33327 124.182 6.30077C129.3 3.26828 135.342 2.19073 141.192 3.26728C147.042 4.34382 152.305 7.50169 156.007 12.1572L154.287 13.5258C150.915 9.28595 146.122 6.41006 140.794 5.42963C135.466 4.44921 129.964 5.43055 125.303 8.19227C120.643 10.954 117.14 15.3094 115.441 20.4535C113.743 25.5976 113.964 31.1826 116.064 36.1764C118.163 41.1701 122 45.235 126.864 47.6197C131.728 50.0043 137.291 50.5476 142.525 49.1491C147.758 47.7506 152.309 44.5049 155.335 40.0117C158.361 35.5186 159.659 30.0819 158.988 24.7064L161.019 23.2323Z" fill="#262626"/>
<path d="M8.96549 39.892V17.752C14.2695 16.36 18.2055 16.684 20.7735 18.724C22.5015 20.092 23.2575 21.928 23.0415 24.232C22.8495 26.512 21.8055 28.444 19.9095 30.028C18.3495 31.348 16.4775 32.14 14.2935 32.404L14.3655 40L8.96549 39.892ZM14.1855 21.496L14.2935 27.004C15.5655 27.028 16.4655 26.56 16.9935 25.6C17.5215 24.616 17.5095 23.656 16.9575 22.72C16.4295 21.784 15.5055 21.376 14.1855 21.496ZM25.3342 17.392H31.0582L31.1302 34.096L37.4302 34.312V39.712H25.6222L25.3342 17.392ZM44.3121 40.18L38.6961 39.784L43.1241 17.464L51.0081 17.248L56.5161 39.604L50.0001 40.18L49.4241 36.832H44.7801L44.3121 40.18ZM45.5001 31.9L48.5241 31.828L47.0481 23.656H46.6521L45.5001 31.9ZM58.9315 17.176H65.8435L69.4795 28.876H69.6595L68.6875 17.356L73.9075 17.248L73.9795 39.892L68.9755 40.072L64.0435 26.896H63.6475L64.4395 40H58.6435L58.9315 17.176ZM77.588 17.536L89.864 16.96L90.08 22.36H83.492L83.168 26.212L87.416 26.392L87.308 30.928L83.168 30.82L83.096 34.672L90.476 34.852L90.548 40.18L77.48 39.784L77.588 17.536ZM96.2793 23.368H92.1393L92.2473 17.464H105.711L106.107 23.26H101.787L102.183 39.892L96.0633 40L96.2793 23.368ZM128.52 39.856C126.24 39.976 124.212 38.992 122.436 36.904C120.684 34.792 119.748 32.104 119.628 28.84C119.58 27.664 119.652 26.464 119.844 25.24C120.036 23.992 120.348 22.768 120.78 21.568C121.236 20.368 121.788 19.3 122.436 18.364C123.084 17.428 123.9 16.684 124.884 16.132C125.892 15.556 126.996 15.28 128.196 15.304C129.252 15.328 130.26 15.616 131.22 16.168C132.204 16.72 133.104 17.5 133.92 18.508C134.736 19.516 135.372 20.836 135.828 22.468C136.308 24.1 136.536 25.936 136.512 27.976C136.488 29.392 136.308 30.772 135.972 32.116C135.66 33.436 135.192 34.684 134.568 35.86C133.968 37.012 133.14 37.96 132.084 38.704C131.052 39.424 129.864 39.808 128.52 39.856ZM127.872 21.028C127.368 21.148 126.924 21.688 126.54 22.648C126.18 23.584 125.94 24.7 125.82 25.996C125.724 27.292 125.712 28.588 125.784 29.884C125.88 31.156 126.12 32.236 126.504 33.124C126.912 34.012 127.44 34.456 128.088 34.456C129.12 34.456 129.828 33.304 130.212 31C130.62 28.672 130.584 26.392 130.104 24.16C129.624 21.904 128.88 20.86 127.872 21.028ZM143.594 40.936L140.786 36.4C142.442 35.392 144.062 34.06 145.646 32.404C144.854 32.404 144.134 32.296 143.486 32.08C141.854 31.48 140.558 30.616 139.598 29.488C139.166 28.936 138.806 28.336 138.518 27.688C138.254 27.016 138.074 26.284 137.978 25.492C137.906 25.132 137.87 24.652 137.87 24.052C137.87 22.084 138.374 20.248 139.382 18.544C140.774 16.552 142.61 15.4 144.89 15.088H145.97C147.194 15.088 148.358 15.34 149.462 15.844C150.59 16.348 151.55 17.068 152.342 18.004C153.854 19.636 154.61 21.796 154.61 24.484C154.61 25.852 154.406 27.208 153.998 28.552C153.614 29.872 153.098 31.06 152.45 32.116C151.826 33.172 151.118 34.18 150.326 35.14C149.534 36.1 148.754 36.928 147.986 37.624C147.218 38.296 146.498 38.896 145.826 39.424C145.178 39.928 144.65 40.3 144.242 40.54C143.834 40.804 143.618 40.936 143.594 40.936ZM148.994 26.572C149.138 25.684 149.21 24.988 149.21 24.484C149.21 23.236 148.85 22.192 148.13 21.352C147.602 20.704 146.882 20.38 145.97 20.38H145.646C144.902 20.5 144.362 20.824 144.026 21.352C143.522 22.24 143.27 23.14 143.27 24.052C143.27 24.148 143.282 24.268 143.306 24.412C143.354 24.532 143.378 24.628 143.378 24.7C143.474 25.348 143.654 25.864 143.918 26.248C144.326 26.656 144.758 26.908 145.214 27.004C145.574 27.148 146.186 27.22 147.05 27.22C147.818 27.1 148.466 26.884 148.994 26.572Z" fill="#262626"/>
</svg>
