<svg width="30" height="28" viewBox="0 0 30 28" fill="none" xmlns="http://www.w3.org/2000/svg">
<rect x="18.9303" y="20.1776" width="1.71599" height="8.33681" rx="0.857994" transform="rotate(-42.9036 18.9303 20.1776)" fill="black" stroke="black"/>
<path d="M22.3901 12.2482C22.3901 17.7042 17.9671 22.1271 12.5112 22.1271C7.05522 22.1271 2.63229 17.7042 2.63229 12.2482C2.63229 6.79225 7.05522 2.36932 12.5112 2.36932C17.9671 2.36932 22.3901 6.79225 22.3901 12.2482ZM4.35301 12.2482C4.35301 16.7538 8.00555 20.4064 12.5112 20.4064C17.0168 20.4064 20.6694 16.7538 20.6694 12.2482C20.6694 7.74258 17.0168 4.09004 12.5112 4.09004C8.00555 4.09004 4.35301 7.74258 4.35301 12.2482Z" fill="black"/>
</svg>
